<svg xmlns="http://www.w3.org/2000/svg" viewBox="0 0 184.1 103.87"><defs><style>.cls-1{fill:#fcfaf1;}.cls-2{fill:#38bdf8;}.cls-3{fill:#fff;}</style></defs><g id="Layer_2" data-name="Layer 2"><g id="Layer_1-2" data-name="Layer 1"><path class="cls-1" d="M129.89,95.85c.25-.65.48-.09.72,0l-.75.06Z"/><path class="cls-2" d="M148.28,26.13c-2.45,16.66-13.45,27.48-26.15,36.57-15.11,10.82-31.91,16-50.65,11A56.25,56.25,0,0,1,66,71.61c8.26-8.35,13-18.94,18.12-29.2C88.31,34,91.64,25.23,96.66,17.27S107.38,2.48,117,.51c12.71-2.6,25.22,5,29.58,17.47.58,1.66.37,3.62,1.76,5l-.12.3a1.87,1.87,0,0,0,0,.94Z"/><path class="cls-3" d="M184.1,11.82A92.05,92.05,0,0,1,0,11.82H35.26a56.79,56.79,0,1,0,113.58,0Z"/></g></g></svg>