<svg xmlns="http://www.w3.org/2000/svg" viewBox="0 0 34.78 21.64"><defs><style>.cls-1{fill:#bb1e5c;}.cls-2{fill:#fff;}</style></defs><g id="Layer_2" data-name="Layer 2"><g id="Layer_1-2" data-name="Layer 1"><path class="cls-1" d="M30.21,6.34c-.59,4-3.26,6.67-6.34,8.87-3.67,2.63-7.75,3.88-12.29,2.67a13.55,13.55,0,0,1-1.34-.5c2-2,3.15-4.6,4.4-7.09,1-2,1.83-4.17,3.05-6.1S20.29.6,22.62.12A6.32,6.32,0,0,1,29.8,4.36c.14.41.09.88.43,1.21l0,.08a.45.45,0,0,0,0,.23Z"/><path class="cls-2" d="M34.78,2.45c0,10.6-7.8,19.19-17.4,19.19S0,13,0,2.41V2.34H4.44v0c0,7.9,5.8,14.31,12.94,14.31s12.94-6.39,13-14.27Z"/></g></g></svg>